<svg id="Layer_1" data-name="Layer 1" xmlns="http://www.w3.org/2000/svg" viewBox="180 320 650 400"><defs><style>.cls-1{fill:#191919;}.cls-2{fill:#ef4900;}</style></defs><path class="cls-1" d="M440.83,465.78H403.19c.34,3,1.16,5.26,2.45,6.73a8.87,8.87,0,0,0,7.1,3.19,10.69,10.69,0,0,0,5.26-1.39,12.32,12.32,0,0,0,3.27-3.09l18.5,1.71q-4.25,7.38-10.24,10.58t-17.2,3.21q-9.74,0-15.32-2.74a22.55,22.55,0,0,1-9.25-8.72,26.36,26.36,0,0,1-3.66-14.05q0-11.47,7.35-18.59t20.32-7.1q10.51,0,16.61,3.18a21.52,21.52,0,0,1,9.27,9.23q3.18,6,3.18,15.73Zm-19.1-9c-.36-3.63-1.34-6.23-2.92-7.8a9.2,9.2,0,0,0-13.4,1.2,13,13,0,0,0-2.17,6.6Z"/><path class="cls-1" d="M482.21,466.42l17.85,2a25,25,0,0,1-4.85,9.67,22.49,22.49,0,0,1-8.6,6.34,33.68,33.68,0,0,1-13.3,2.26,49,49,0,0,1-13-1.45,22.79,22.79,0,0,1-8.92-4.7,23.74,23.74,0,0,1-5.86-7.63q-2.13-4.38-2.12-11.61A27.38,27.38,0,0,1,446,448.75a22.79,22.79,0,0,1,5.17-6.62,23.64,23.64,0,0,1,6.73-4.35q5.49-2.25,14.07-2.26,12,0,18.29,4.29a22.63,22.63,0,0,1,8.83,12.55l-17.67,2.35a8.17,8.17,0,0,0-3-4.73,9.8,9.8,0,0,0-5.88-1.59,9.48,9.48,0,0,0-7.54,3.34q-2.88,3.33-2.88,10.1,0,6,2.86,9.17a9.44,9.44,0,0,0,7.28,3.13,10.06,10.06,0,0,0,6.21-1.89A11.3,11.3,0,0,0,482.21,466.42Z"/><path class="cls-1" d="M502.6,461.26q0-11.2,7.56-18.47t20.44-7.27q14.7,0,22.23,8.53a24.79,24.79,0,0,1,6,16.93q0,11.31-7.5,18.52t-20.73,7.22q-11.8,0-19.09-6A24.06,24.06,0,0,1,502.6,461.26Zm18.82-.05q0,6.56,2.65,9.69a8.69,8.69,0,0,0,13.33.05Q540,467.86,540,461q0-6.36-2.62-9.48a8.2,8.2,0,0,0-6.51-3.11,8.49,8.49,0,0,0-6.78,3.16Q521.42,454.75,521.42,461.21Z"/><path class="cls-1" d="M564.27,436.63H581.8v7.15a24.45,24.45,0,0,1,7.63-6.37,20.91,20.91,0,0,1,9.29-1.89q5.87,0,9.27,2.08a15.41,15.41,0,0,1,5.59,6.18,28.18,28.18,0,0,1,8.07-6.53,20.92,20.92,0,0,1,9-1.73q7.89,0,12.32,4.68t4.42,14.65v30.76H628.57v-27.9a7.78,7.78,0,0,0-1.3-4.94,5.66,5.66,0,0,0-4.7-2.53,6.69,6.69,0,0,0-5.35,2.39q-2,2.4-2,7.71v25.27H596.37v-27a16.77,16.77,0,0,0-.37-4.38,6,6,0,0,0-2.07-3,5.57,5.57,0,0,0-3.46-1.13,6.66,6.66,0,0,0-5.31,2.45q-2.07,2.45-2.07,8v25H564.27Z"/><path class="cls-1" d="M655,436.63h17.53v7.15a24.56,24.56,0,0,1,7.63-6.37,21,21,0,0,1,9.3-1.89q5.85,0,9.27,2.08a15.46,15.46,0,0,1,5.58,6.18,28.18,28.18,0,0,1,8.07-6.53,21,21,0,0,1,9-1.73q7.88,0,12.31,4.68t4.43,14.65v30.76H719.25v-27.9a7.84,7.84,0,0,0-1.29-4.94,5.67,5.67,0,0,0-4.71-2.53,6.7,6.7,0,0,0-5.35,2.39q-2,2.4-2,7.71v25.27H687.06v-27a17.23,17.23,0,0,0-.37-4.38,6.05,6.05,0,0,0-2.08-3,5.55,5.55,0,0,0-3.46-1.13,6.64,6.64,0,0,0-5.3,2.45q-2.08,2.45-2.08,8v25H655Z"/><path class="cls-1" d="M386.54,494.36h19v23.43a18.36,18.36,0,0,1,6.39-4.43,20.41,20.41,0,0,1,7.91-1.48,19.15,19.15,0,0,1,14.8,6.44q5.86,6.43,5.86,18.47a35.07,35.07,0,0,1-2.67,14.14,20,20,0,0,1-7.41,9.13,19.11,19.11,0,0,1-10.49,3,19.46,19.46,0,0,1-9-2.12,23.61,23.61,0,0,1-6.73-6.23V562H386.54Zm18.82,43q0,6.33,2.38,9.16a7.51,7.51,0,0,0,6,2.83,7,7,0,0,0,5.65-2.79c1.52-1.86,2.28-5,2.28-9.38q0-5.82-2.24-8.53A6.78,6.78,0,0,0,414,525.9a7.86,7.86,0,0,0-6.25,2.84Q405.37,531.58,405.36,537.34Z"/><path class="cls-1" d="M497.29,562H479.76V554a25.7,25.7,0,0,1-7.91,7,21,21,0,0,1-9.8,2.08c-5.16,0-9.22-1.54-12.15-4.64s-4.41-7.84-4.41-14.27V513h18.87v26.94q0,4.61,1.7,6.55a6.07,6.07,0,0,0,4.8,1.93,6.83,6.83,0,0,0,5.51-2.58q2.14-2.58,2.15-9.27V513h18.77Z"/><path class="cls-1" d="M556.47,494.36V562H538.9v-7.24a23.64,23.64,0,0,1-6.74,6.23,19.25,19.25,0,0,1-9,2.12q-10,0-15.29-7.61T502.55,537q0-12.16,5.84-18.63a19.09,19.09,0,0,1,14.83-6.46,20.51,20.51,0,0,1,7.95,1.48,17.91,17.91,0,0,1,6.34,4.43V494.36Zm-18.82,43q0-5.76-2.44-8.6A7.82,7.82,0,0,0,529,525.9a6.79,6.79,0,0,0-5.49,2.73q-2.22,2.72-2.22,9.13c0,4,.77,6.92,2.29,8.78a7,7,0,0,0,5.65,2.79,7.52,7.52,0,0,0,6-2.81Q537.65,543.71,537.65,537.34Z"/><path class="cls-1" d="M616.62,494.36V562H599.05v-7.24a23.64,23.64,0,0,1-6.74,6.23,19.25,19.25,0,0,1-9,2.12q-10,0-15.29-7.61T562.7,537q0-12.16,5.84-18.63a19.08,19.08,0,0,1,14.82-6.46,20.53,20.53,0,0,1,8,1.48,18,18,0,0,1,6.34,4.43V494.36Zm-18.82,43q0-5.76-2.44-8.6a7.82,7.82,0,0,0-6.18-2.84,6.79,6.79,0,0,0-5.49,2.73q-2.22,2.72-2.22,9.13c0,4,.77,6.92,2.29,8.78a7,7,0,0,0,5.65,2.79,7.53,7.53,0,0,0,6-2.81Q597.8,543.71,597.8,537.34Z"/><path class="cls-1" d="M618.88,513h19.81L648.8,545.6,658.18,513h18.5l-19.44,52.34q-3.32,9-6.77,12.09-4.89,4.43-14.9,4.43a109.19,109.19,0,0,1-12.54-1.1l-1.47-13.1a29.66,29.66,0,0,0,9,1.29,8.77,8.77,0,0,0,5.37-1.53q2.06-1.51,3.48-5.45Z"/><circle class="cls-2" cx="762.06" cy="472.37" r="13.25"/><path class="cls-2" d="M295.09,576.9a77.42,77.42,0,0,1-26.61-4.75l-.11,0-2.28-.87-.23-.09c-.56-.22-1.12-.45-1.66-.7l-.27-.11c-.68-.3-1.39-.62-2.09-1l0,0h0a66.35,66.35,0,0,1-31.27-32.83c-14.27-32.22-1.33-69.32,28.86-82.7,25.14-11.13,55-2.65,72.65,20.63a20.87,20.87,0,0,1,3.6,17.91,20.63,20.63,0,0,1-11.69,13.79l-53.28,23.61a10.07,10.07,0,0,1-8.16-18.42l53.28-23.61a.53.53,0,0,0,.34-.41.81.81,0,0,0-.15-.71c-12-15.79-31.88-21.7-48.43-14.37-20,8.88-28.37,34-18.6,56.12a46.22,46.22,0,0,0,21.55,22.82l3,1.32,2,.76a56,56,0,0,0,72.22-33.55,60.21,60.21,0,0,0-1.61-45.46c-12.47-28.15-43.15-42.42-71.37-33.2a10.07,10.07,0,0,1-6.26-19.15,76.77,76.77,0,0,1,55.94,3.38,81.26,81.26,0,0,1,42.21,101.4,76.12,76.12,0,0,1-71.5,50.23Z"/></svg>